<svg id="visual" viewBox="0 0 900 600" width="900" height="600" xmlns="http://www.w3.org/2000/svg" xmlns:xlink="http://www.w3.org/1999/xlink" version="1.1"><rect x="0" y="0" width="900" height="600" fill="#001220"></rect><defs><linearGradient id="grad1_0" x1="33.3%" y1="100%" x2="100%" y2="0%"><stop offset="20%" stop-color="#fbae3c" stop-opacity="1"></stop><stop offset="80%" stop-color="#fbae3c" stop-opacity="1"></stop></linearGradient></defs><defs><linearGradient id="grad1_1" x1="33.3%" y1="100%" x2="100%" y2="0%"><stop offset="20%" stop-color="#fbae3c" stop-opacity="1"></stop><stop offset="80%" stop-color="#96446e" stop-opacity="1"></stop></linearGradient></defs><defs><linearGradient id="grad1_2" x1="33.3%" y1="100%" x2="100%" y2="0%"><stop offset="20%" stop-color="#001220" stop-opacity="1"></stop><stop offset="80%" stop-color="#96446e" stop-opacity="1"></stop></linearGradient></defs><defs><linearGradient id="grad2_0" x1="0%" y1="100%" x2="66.7%" y2="0%"><stop offset="20%" stop-color="#fbae3c" stop-opacity="1"></stop><stop offset="80%" stop-color="#fbae3c" stop-opacity="1"></stop></linearGradient></defs><defs><linearGradient id="grad2_1" x1="0%" y1="100%" x2="66.7%" y2="0%"><stop offset="20%" stop-color="#96446e" stop-opacity="1"></stop><stop offset="80%" stop-color="#fbae3c" stop-opacity="1"></stop></linearGradient></defs><defs><linearGradient id="grad2_2" x1="0%" y1="100%" x2="66.7%" y2="0%"><stop offset="20%" stop-color="#96446e" stop-opacity="1"></stop><stop offset="80%" stop-color="#001220" stop-opacity="1"></stop></linearGradient></defs><g transform="translate(900, 600)"><path d="M-513.8 0C-494.5 -53.5 -475.3 -107 -444.1 -144.3C-413 -181.6 -370 -202.7 -351.1 -255.1C-332.2 -307.5 -337.3 -391.2 -302 -415.7C-266.7 -440.1 -190.9 -405.3 -133.8 -411.8C-76.7 -418.3 -38.4 -466 0 -513.8L0 0Z" fill="#3d3056"></path><path d="M-342.5 0C-329.7 -35.7 -316.8 -71.3 -296.1 -96.2C-275.3 -121.1 -246.7 -135.1 -234.1 -170.1C-221.5 -205 -224.9 -260.8 -201.3 -277.1C-177.8 -293.4 -127.3 -270.2 -89.2 -274.5C-51.2 -278.9 -25.6 -310.7 0 -342.5L0 0Z" fill="#e1685e"></path><path d="M-171.3 0C-164.8 -17.8 -158.4 -35.7 -148 -48.1C-137.7 -60.5 -123.3 -67.6 -117 -85C-110.7 -102.5 -112.4 -130.4 -100.7 -138.6C-88.9 -146.7 -63.6 -135.1 -44.6 -137.3C-25.6 -139.4 -12.8 -155.3 0 -171.3L0 0Z" fill="#fbae3c"></path></g><g transform="translate(0, 0)"><path d="M513.8 0C510.9 57.3 508 114.6 482.2 156.7C456.4 198.7 407.6 225.5 379.4 275.7C351.2 325.9 343.5 399.4 302 415.7C260.5 431.9 185.1 390.7 129.2 397.5C73.2 404.3 36.6 459.1 0 513.8L0 0Z" fill="#3d3056"></path><path d="M342.5 0C340.6 38.2 338.7 76.4 321.5 104.4C304.2 132.5 271.8 150.3 253 183.8C234.1 217.2 229 266.3 201.3 277.1C173.7 287.9 123.4 260.5 86.1 265C48.8 269.6 24.4 306 0 342.5L0 0Z" fill="#e1685e"></path><path d="M171.3 0C170.3 19.1 169.3 38.2 160.7 52.2C152.1 66.2 135.9 75.2 126.5 91.9C117.1 108.6 114.5 133.1 100.7 138.6C86.8 144 61.7 130.2 43.1 132.5C24.4 134.8 12.2 153 0 171.3L0 0Z" fill="#fbae3c"></path></g></svg>